<svg width="60" height="60" viewBox="0 0 60 60" fill="none" xmlns="http://www.w3.org/2000/svg">
<rect x="0.5" y="0.5" width="59" height="59" stroke="#2D3538"/>
<path d="M24.7754 26.3379C26.3249 24.7884 28.1934 24.0137 30.3809 24.0137C32.5684 24.0137 34.4141 24.7884 35.918 26.3379C37.4674 27.8418 38.2422 29.6875 38.2422 31.875C38.2422 34.0625 37.4674 35.931 35.918 37.4805C34.4141 38.9844 32.5684 39.7363 30.3809 39.7363C28.1934 39.7363 26.3249 38.9844 24.7754 37.4805C23.2715 35.931 22.5195 34.0625 22.5195 31.875C22.5195 29.6875 23.2715 27.8418 24.7754 26.3379ZM26.7578 35.498C27.7604 36.5007 28.9681 37.002 30.3809 37.002C31.7936 37.002 33.0013 36.5007 34.0039 35.498C35.0065 34.4954 35.5078 33.2878 35.5078 31.875C35.5078 30.4622 35.0065 29.2546 34.0039 28.252C33.0013 27.2493 31.7936 26.748 30.3809 26.748C28.9681 26.748 27.7604 27.2493 26.7578 28.252C25.7552 29.2546 25.2539 30.4622 25.2539 31.875C25.2539 33.2878 25.7552 34.4954 26.7578 35.498ZM39.8145 22.4414C40.179 22.7604 40.3613 23.1706 40.3613 23.6719C40.3613 24.1732 40.179 24.6061 39.8145 24.9707C39.4954 25.3353 39.0853 25.5176 38.584 25.5176C38.0827 25.5176 37.6497 25.3353 37.2852 24.9707C36.9206 24.6061 36.7383 24.1732 36.7383 23.6719C36.7383 23.1706 36.9206 22.7604 37.2852 22.4414C37.6497 22.0768 38.0827 21.8945 38.584 21.8945C39.0853 21.8945 39.4954 22.0768 39.8145 22.4414ZM45.625 25.5859C45.6706 26.8164 45.6934 28.9128 45.6934 31.875C45.6934 34.8372 45.6706 36.9336 45.625 38.1641C45.4883 40.944 44.6452 43.1087 43.0957 44.6582C41.5918 46.1621 39.4499 46.9596 36.6699 47.0508C35.4395 47.1419 33.3431 47.1875 30.3809 47.1875C27.4186 47.1875 25.3223 47.1419 24.0918 47.0508C21.3118 46.9141 19.1699 46.0938 17.666 44.5898C17.0736 44.043 16.5951 43.4049 16.2305 42.6758C15.8659 41.9466 15.5924 41.2402 15.4102 40.5566C15.2734 39.873 15.2051 39.0755 15.2051 38.1641C15.1139 36.9336 15.0684 34.8372 15.0684 31.875C15.0684 28.9128 15.1139 26.7936 15.2051 25.5176C15.3418 22.7832 16.1621 20.6641 17.666 19.1602C19.1699 17.6107 21.3118 16.7676 24.0918 16.6309C25.3223 16.5853 27.4186 16.5625 30.3809 16.5625C33.3431 16.5625 35.4395 16.5853 36.6699 16.6309C39.4499 16.7676 41.5918 17.6107 43.0957 19.1602C44.6452 20.6641 45.4883 22.806 45.625 25.5859ZM42.3438 40.8984C42.4805 40.5339 42.5944 40.0781 42.6855 39.5312C42.7767 38.9388 42.8451 38.2552 42.8906 37.4805C42.9362 36.6602 42.959 35.9993 42.959 35.498C42.959 34.9967 42.959 34.2904 42.959 33.3789C42.959 32.4674 42.959 31.9661 42.959 31.875C42.959 31.7383 42.959 31.237 42.959 30.3711C42.959 29.4596 42.959 28.7533 42.959 28.252C42.959 27.7507 42.9362 27.1126 42.8906 26.3379C42.8451 25.5176 42.7767 24.834 42.6855 24.2871C42.5944 23.6947 42.4805 23.2161 42.3438 22.8516C41.7969 21.4388 40.8171 20.459 39.4043 19.9121C39.0397 19.7754 38.5612 19.6615 37.9688 19.5703C37.4219 19.4792 36.7383 19.4108 35.918 19.3652C35.1432 19.3197 34.5052 19.2969 34.0039 19.2969C33.5482 19.2969 32.8418 19.2969 31.8848 19.2969C30.9733 19.2969 30.472 19.2969 30.3809 19.2969C30.2897 19.2969 29.7884 19.2969 28.877 19.2969C27.9655 19.2969 27.2591 19.2969 26.7578 19.2969C26.2565 19.2969 25.5957 19.3197 24.7754 19.3652C24.0007 19.4108 23.3171 19.4792 22.7246 19.5703C22.1777 19.6615 21.722 19.7754 21.3574 19.9121C19.9447 20.459 18.9648 21.4388 18.418 22.8516C18.2812 23.2161 18.1673 23.6947 18.0762 24.2871C17.985 24.834 17.9167 25.5176 17.8711 26.3379C17.8255 27.1126 17.8027 27.7507 17.8027 28.252C17.8027 28.7077 17.8027 29.4141 17.8027 30.3711C17.8027 31.2826 17.8027 31.7839 17.8027 31.875C17.8027 32.0573 17.8027 32.4902 17.8027 33.1738C17.8027 33.8118 17.8027 34.3587 17.8027 34.8145C17.8027 35.2246 17.8027 35.7715 17.8027 36.4551C17.8483 37.1387 17.8939 37.7311 17.9395 38.2324C17.985 38.6882 18.0534 39.1667 18.1445 39.668C18.2357 40.1693 18.3268 40.5794 18.418 40.8984C19.0104 42.3112 19.9902 43.291 21.3574 43.8379C21.722 43.9746 22.1777 44.0885 22.7246 44.1797C23.3171 44.2708 24.0007 44.3392 24.7754 44.3848C25.5957 44.4303 26.2337 44.4531 26.6895 44.4531C27.1908 44.4531 27.8971 44.4531 28.8086 44.4531C29.7656 44.4531 30.2897 44.4531 30.3809 44.4531C30.5176 44.4531 31.0189 44.4531 31.8848 44.4531C32.7962 44.4531 33.5026 44.4531 34.0039 44.4531C34.5052 44.4531 35.1432 44.4303 35.918 44.3848C36.7383 44.3392 37.4219 44.2708 37.9688 44.1797C38.5612 44.0885 39.0397 43.9746 39.4043 43.8379C40.8171 43.2454 41.7969 42.2656 42.3438 40.8984Z" fill="black"/>
</svg>
