<svg width="60" height="60" viewBox="0 0 60 60" fill="none" xmlns="http://www.w3.org/2000/svg">
<rect x="0.5" y="0.5" width="59" height="59" stroke="#2D3538"/>
<path d="M45.625 20.1426L40.9766 41.8809C40.612 43.4303 39.7689 43.8405 38.4473 43.1113L31.4062 37.916L27.9883 41.1973C27.5326 41.653 27.054 41.8809 26.5527 41.8809L27.0996 34.7031L40.1562 22.9453C40.4753 22.6263 40.4753 22.444 40.1562 22.3984C39.8828 22.3073 39.5866 22.3757 39.2676 22.6035L23.1348 32.7891L16.1621 30.6016C15.3874 30.3737 15.0228 30.0319 15.0684 29.5762C15.1139 29.1204 15.5924 28.7331 16.5039 28.4141L43.6426 17.8867C44.3262 17.6589 44.873 17.75 45.2832 18.1602C45.6934 18.5247 45.8073 19.1855 45.625 20.1426Z" fill="black"/>
</svg>
