<svg width="60" height="60" viewBox="0 0 60 60" fill="none" xmlns="http://www.w3.org/2000/svg">
<rect x="0.5" y="0.5" width="59" height="59" stroke="#2D3538"/>
<path d="M41.0449 20.0059C44.0983 23.0592 45.625 26.6367 45.625 30.7383C45.625 34.931 44.1211 38.5085 41.1133 41.4707C38.1055 44.4329 34.5052 45.9141 30.3125 45.9141C27.7148 45.9141 25.2995 45.2988 23.0664 44.0684L15 46.1875L17.1875 38.3262C15.8203 36.002 15.1367 33.4727 15.1367 30.7383C15.1367 26.5456 16.6178 22.9681 19.5801 20.0059C22.5423 17.0436 26.1198 15.5625 30.3125 15.5625C34.5052 15.5625 38.0827 17.0436 41.0449 20.0059ZM30.3125 43.3848C33.776 43.3848 36.7611 42.1543 39.2676 39.6934C41.7741 37.1868 43.0273 34.2018 43.0273 30.7383C43.0729 27.3659 41.7969 24.4036 39.1992 21.8516C36.7383 19.3906 33.776 18.1602 30.3125 18.1602C26.849 18.1602 23.8639 19.3906 21.3574 21.8516C18.8965 24.3125 17.666 27.2747 17.666 30.7383C17.666 33.1536 18.3268 35.3867 19.6484 37.4375L19.9219 37.916L18.623 42.5645L23.4082 41.334L23.8867 41.6074C25.8464 42.7923 27.9883 43.3848 30.3125 43.3848ZM37.2168 33.8828C37.6725 34.1107 37.9232 34.2702 37.9688 34.3613C38.1055 34.6348 38.0143 35.25 37.6953 36.207C37.5586 36.5716 37.194 36.959 36.6016 37.3691C36.0547 37.7337 35.5762 37.9388 35.166 37.9844C33.9811 38.1667 32.4544 37.8477 30.5859 37.0273C28.3529 36.0703 26.2109 34.1562 24.1602 31.2852C23.112 29.8724 22.5879 28.5736 22.5879 27.3887C22.5879 26.2493 23.0208 25.1784 23.8867 24.1758C24.2057 23.9023 24.5475 23.7656 24.9121 23.7656C25.2767 23.7656 25.5273 23.7656 25.6641 23.7656C26.0742 23.7656 26.3477 23.9707 26.4844 24.3809C27.2591 26.2493 27.6465 27.1836 27.6465 27.1836C27.7832 27.457 27.806 27.6849 27.7148 27.8672C27.5326 28.2773 27.3047 28.6419 27.0312 28.9609C26.7578 29.2344 26.5983 29.3939 26.5527 29.4395C26.5072 29.485 26.5299 29.6445 26.6211 29.918C27.2591 31.1029 27.9427 31.9915 28.6719 32.584C29.4466 33.1764 30.472 33.7917 31.748 34.4297C32.1126 34.612 32.3861 34.5892 32.5684 34.3613C33.1608 33.6777 33.571 33.1764 33.7988 32.8574C33.9811 32.584 34.2546 32.5156 34.6191 32.6523C34.9837 32.7891 35.8496 33.1992 37.2168 33.8828Z" fill="black"/>
</svg>
