<svg width="60" height="60" viewBox="0 0 60 60" fill="none" xmlns="http://www.w3.org/2000/svg">
<rect x="0.5" y="0.5" width="59" height="59" stroke="#2D3538"/>
<path d="M43.3516 17.793C44.8555 19.1146 45.9264 21.2109 46.5645 24.082C47.2025 26.9076 47.2708 30.4167 46.7695 34.6094C46.6328 35.6576 46.4049 36.6146 46.0859 37.4805C45.8125 38.3464 45.4935 39.0983 45.1289 39.7363C44.7643 40.3288 44.3314 40.8757 43.8301 41.377C43.3743 41.8783 42.9186 42.2884 42.4629 42.6074C42.0527 42.8809 41.597 43.1315 41.0957 43.3594C40.5944 43.5872 40.1842 43.7695 39.8652 43.9062C39.5462 43.9974 39.1816 44.0885 38.7715 44.1797C38.4069 44.2708 38.2018 44.3164 38.1562 44.3164C37.8372 44.4531 37.2904 44.5898 36.5156 44.7266C35.7409 44.8633 34.5104 45 32.8242 45.1367C31.138 45.319 29.4518 45.319 27.7656 45.1367C26.8086 46.1849 26.125 46.9368 25.7148 47.3926C25.5781 47.5293 25.3958 47.7116 25.168 47.9395C24.9401 48.2129 24.7806 48.3952 24.6895 48.4863C24.5983 48.5775 24.4388 48.7142 24.2109 48.8965C24.0286 49.1243 23.8919 49.2383 23.8008 49.2383C23.7096 49.2383 23.5501 49.2839 23.3223 49.375C23.0944 49.4661 22.9349 49.4434 22.8438 49.3066C22.6615 49.2611 22.502 49.1699 22.3652 49.0332C22.2285 48.8965 22.1374 48.737 22.0918 48.5547C22.0462 48.418 22.0007 48.2585 21.9551 48.0762C21.9551 47.9395 21.9551 47.8255 21.9551 47.7344L21.8867 47.5977L21.9551 44.043H21.8867C20.9297 43.7695 20.041 43.4049 19.2207 42.9492C18.4004 42.4479 17.7168 41.901 17.1699 41.3086C16.6686 40.7161 16.1901 40.0781 15.7344 39.3945C15.3242 38.6654 15.0052 37.9362 14.7773 37.207C14.5951 36.4779 14.4128 35.7259 14.2305 34.9512C14.0938 34.1764 14.0026 33.4245 13.957 32.6953C13.957 31.9661 13.9342 31.2598 13.8887 30.5762C13.8887 29.8926 13.9115 29.2773 13.957 28.7305C14.0482 23.763 15.1875 20.1855 17.375 17.998C18.7422 16.7676 20.5651 15.8561 22.8438 15.2637C25.1224 14.6712 27.082 14.375 28.7227 14.375H31.1152C33.485 14.4206 35.627 14.694 37.541 15.1953C39.5007 15.651 40.8451 16.1068 41.5742 16.5625C42.3034 16.9727 42.8958 17.3828 43.3516 17.793ZM44.3086 33.9941C44.7643 30.4395 44.7188 27.4316 44.1719 24.9707C43.6706 22.4642 42.7819 20.6641 41.5059 19.5703C41.1868 19.2513 40.6855 18.9095 40.002 18.5449C39.3184 18.1803 38.1335 17.8158 36.4473 17.4512C34.8066 17.0866 32.9837 16.8815 30.9785 16.8359C30.7962 16.8359 30.5 16.8359 30.0898 16.8359C29.7253 16.8359 29.0189 16.8815 27.9707 16.9727C26.9681 17.0182 25.9883 17.1322 25.0312 17.3145C24.1198 17.4512 23.1172 17.7474 22.0234 18.2031C20.9297 18.6133 20.041 19.1602 19.3574 19.8438C17.4889 21.6667 16.5091 24.6517 16.418 28.7988C16.4635 29.6191 16.4635 30.5078 16.418 31.4648C16.3724 32.3763 16.4635 33.3789 16.6914 34.4727C16.9193 35.5208 17.2155 36.5234 17.5801 37.4805C17.9902 38.3919 18.651 39.2578 19.5625 40.0781C20.474 40.8529 21.5905 41.4225 22.9121 41.7871C22.8665 45.3874 22.8438 47.347 22.8438 47.666C22.8438 47.985 22.9349 48.1673 23.1172 48.2129C23.2995 48.304 23.4818 48.2357 23.6641 48.0078L28.3125 42.6074C29.7253 42.6986 31.1608 42.6986 32.6191 42.6074C34.0775 42.4707 35.1484 42.334 35.832 42.1973C36.5156 42.0605 36.9941 41.9466 37.2676 41.8555C37.3132 41.8555 37.5182 41.8099 37.8828 41.7188C38.293 41.6276 38.6348 41.5365 38.9082 41.4453C39.2272 41.3086 39.6374 41.1263 40.1387 40.8984C40.64 40.6706 41.0729 40.3743 41.4375 40.0098C41.8477 39.5996 42.2578 39.1439 42.668 38.6426C43.0781 38.0957 43.4199 37.4349 43.6934 36.6602C43.9668 35.8398 44.1719 34.9512 44.3086 33.9941ZM34.8066 28.457C34.8066 28.776 34.6471 28.9355 34.3281 28.9355C34.0547 28.9355 33.918 28.7988 33.918 28.5254C33.8268 27.0671 33.0749 26.2923 31.6621 26.2012C31.4798 26.2012 31.3431 26.1328 31.252 25.9961C31.2064 25.8138 31.2292 25.6543 31.3203 25.5176C31.4115 25.3809 31.5482 25.3125 31.7305 25.3125C33.6901 25.4036 34.7155 26.4518 34.8066 28.457ZM36.1738 29.2773C36.2194 27.7734 35.7865 26.5202 34.875 25.5176C33.9635 24.515 32.6647 23.9453 30.9785 23.8086C30.7962 23.8086 30.6823 23.7402 30.6367 23.6035C30.5911 23.4212 30.5911 23.2617 30.6367 23.125C30.7279 22.9883 30.8646 22.9199 31.0469 22.9199C32.9609 23.0566 34.4421 23.7174 35.4902 24.9023C36.584 26.0872 37.1081 27.5456 37.0625 29.2773C37.0625 29.4596 36.9941 29.5964 36.8574 29.6875C36.7207 29.7331 36.5612 29.7331 36.3789 29.6875C36.2422 29.5964 36.1738 29.4596 36.1738 29.2773ZM39.3867 30.166C39.3867 30.3483 39.3184 30.485 39.1816 30.5762C39.0449 30.6217 38.8854 30.6217 38.7031 30.5762C38.5664 30.485 38.498 30.3483 38.498 30.166C38.498 27.4772 37.7005 25.3809 36.1055 23.877C34.556 22.3275 32.5964 21.5527 30.2266 21.5527C29.9531 21.5527 29.8164 21.416 29.8164 21.1426C29.8164 20.8236 29.9531 20.6641 30.2266 20.6641C32.8698 20.6641 35.0573 21.5299 36.7891 23.2617C38.5208 24.9479 39.3867 27.2493 39.3867 30.166ZM38.6348 36.8652C38.179 37.64 37.6322 38.278 36.9941 38.7793C36.3561 39.235 35.7181 39.349 35.0801 39.1211C34.3053 38.8932 33.1888 38.3919 31.7305 37.6172C30.3177 36.8424 29.11 36.0677 28.1074 35.293C27.0137 34.4271 26.0339 33.4473 25.168 32.3535C24.4388 31.3965 23.7552 30.3483 23.1172 29.209C22.6615 28.4342 22.2741 27.7279 21.9551 27.0898C21.6816 26.4518 21.4993 25.9961 21.4082 25.7227L21.3398 25.3809C21.112 24.7428 21.2259 24.1048 21.6816 23.4668C22.1829 22.8288 22.821 22.2819 23.5957 21.8262C24.2337 21.5072 24.7806 21.5983 25.2363 22.0996C25.7832 22.7832 26.1934 23.2845 26.4668 23.6035C26.7858 24.0592 27.1276 24.6061 27.4922 25.2441C27.9023 26.0189 27.8112 26.6341 27.2188 27.0898L26.3984 27.7051C26.2617 27.7962 26.1706 27.9329 26.125 28.1152C26.0794 28.252 26.0566 28.3887 26.0566 28.5254V28.6621C26.1022 28.7988 26.1478 28.9811 26.1934 29.209C26.2845 29.3913 26.4668 29.7786 26.7402 30.3711C27.0592 30.918 27.401 31.4421 27.7656 31.9434C28.1758 32.3991 28.7227 32.8776 29.4062 33.3789C30.1354 33.8802 30.9329 34.2448 31.7988 34.4727C32.209 34.4727 32.528 34.3359 32.7559 34.0625L33.4395 33.2422C33.8952 32.6497 34.4876 32.5586 35.2168 32.9688C36.4928 33.6979 37.541 34.4499 38.3613 35.2246C38.8626 35.6803 38.9538 36.2272 38.6348 36.8652Z" fill="black"/>
</svg>
